<svg xmlns="http://www.w3.org/2000/svg" xmlns:xlink="http://www.w3.org/1999/xlink" viewBox="0 0 20 20" id="ne-ext-pdf">
  <defs>
    <filter x="-8.3%" y="-16.7%" width="133.3%" height="133.3%" filterUnits="objectBoundingBox" id="ne-ext-pdf_a">
      <feOffset dx="1" in="SourceAlpha" result="shadowOffsetOuter1"></feOffset>
      <feGaussianBlur stdDeviation=".5" in="shadowOffsetOuter1" result="shadowBlurOuter1"></feGaussianBlur>
      <feColorMatrix values="0 0 0 0 0.4 0 0 0 0 0.134439834 0 0 0 0 0.0564315353 0 0 0 0.35 0" in="shadowBlurOuter1">
      </feColorMatrix>
    </filter>
    <path
      d="M14.02 10.335c.772.024 1.34.17 1.65.474.299.298.41.838.27 1.304-.158.53-.597.867-1.247.867-.788 0-1.957-.355-2.968-.896-.582.099-1.222.273-2.067.548-.195.063-.393.129-.665.22l-.43.146-.399.134c-1.184 2.032-2.256 2.932-3.13 2.864a1.086 1.086 0 0 1-.825-.496c-.17-.251-.243-.558-.194-.792.101-.507.47-.988 1.058-1.457.447-.355.979-.675 1.661-1.027.512-.9 1.274-2.512 1.851-3.887-.453-1.754-.578-2.782-.364-3.563.131-.484.644-.796 1.203-.773.598.024 1.074.417 1.193 1.089.065.311.085.647.066 1.011-.025.482-.109.96-.264 1.616a35.06 35.06 0 0 1-.045.187l-.038.158c.42 1.094 1.011 1.838 1.89 2.38a11.499 11.499 0 0 1 1.794-.107Zm-8.963 4.641c0 .03.018.058.046.07a.08.08 0 0 0 .04.005.148.148 0 0 0 .04-.01.594.594 0 0 0 .095-.052c.09-.058.202-.15.329-.272.345-.333.748-.844 1.193-1.554l.294-.467-.404.376-.333.298c-.173.156-.32.295-.462.438a4.932 4.932 0 0 0-.631.754 2.005 2.005 0 0 0-.203.389l-.004.012v.013Zm4.551-7.889c.133-.235.214-.772.206-1.288-.008-.588-.12-.978-.364-.978-.173 0-.217.33-.19.879.022.483.104 1.018.217 1.373l.05.159.081-.145ZM9.398 9.2c-.444 1.173-.856 2.106-1.303 2.883l-.1.177.189-.073c.217-.083 1.077-.435.999-.404.752-.303 1.302-.487 1.892-.608l.158-.033-.13-.096c-.603-.447-1.151-1.087-1.574-1.855l-.075-.137-.056.146Zm5.698 2.757a.242.242 0 0 0 .078-.047.168.168 0 0 0 .05-.228c-.045-.078-.143-.146-.291-.2-.348-.128-.945-.174-1.787-.112l-.296.022.273.117c1.077.46 1.689.56 1.973.448Z"
      id="ne-ext-pdf_b"></path>
  </defs>
  <g fill="none" fill-rule="evenodd">
    <rect fill="#F15122" width="20" height="20" rx="2"></rect>
    <use fill="#000" filter="url(#ne-ext-pdf_a)" xlink:href="#ne-ext-pdf_b"></use>
    <use fill="#FFF" xlink:href="#ne-ext-pdf_b"></use>
  </g>
</svg>
